<svg xmlns="http://www.w3.org/2000/svg" viewBox="0 0 20 20">
  <g id="Слой_2" data-name="Слой 2">
    <g id="Слой_69" data-name="Слой 69">
      <path
        d="M17,1a2,2,0,0,1,2,2V17a2,2,0,0,1-2,2H3a2,2,0,0,1-2-2V3A2,2,0,0,1,3,1H17m0-1H3A3,3,0,0,0,0,3V17a3,3,0,0,0,3,3H17a3,3,0,0,0,3-3V3a3,3,0,0,0-3-3Z"/>
      <path d="M16,3a1,1,0,1,1-1,1,1,1,0,0,1,1-1m0-1a2,2,0,1,0,2,2,2,2,0,0,0-2-2Z"/>
      <path d="M10,6a5,5,0,1,1-5,5,5,5,0,0,1,5-5m0-1a6,6,0,1,0,6,6,6,6,0,0,0-6-6Z"/>
    </g>
  </g>
</svg>
