<svg xmlns="http://www.w3.org/2000/svg" viewBox="0 0 20 20"><title>Ресурс 647</title><g id="Слой_2" data-name="Слой 2"><g id="Слой_72" data-name="Слой 72"><path d="M17,1a2,2,0,0,1,2,2V17a2,2,0,0,1-2,2H3a2,2,0,0,1-2-2V3A2,2,0,0,1,3,1H17m0-1H3A3,3,0,0,0,0,3V17a3,3,0,0,0,3,3H17a3,3,0,0,0,3-3V3a3,3,0,0,0-3-3Z"/><path d="M15.25,7.19H12.88a3,3,0,0,0,.42-.36,1.76,1.76,0,0,0,0-2.36,1.51,1.51,0,0,0-2.2,0A4.56,4.56,0,0,0,10,7.19H10A4.56,4.56,0,0,0,8.9,4.47a1.51,1.51,0,0,0-2.2,0,1.76,1.76,0,0,0,0,2.36,3,3,0,0,0,.42.36H4.75A.78.78,0,0,0,4,8v2a.39.39,0,0,0,.38.4h.38V15.2a.78.78,0,0,0,.75.8h9a.78.78,0,0,0,.75-.8V10.39h.38A.39.39,0,0,0,16,10V8A.78.78,0,0,0,15.25,7.19ZM7.24,5A.76.76,0,0,1,8.37,5c.51.54,1,1.93.83,2.12a.23.23,0,0,1-.14,0,3.59,3.59,0,0,1-1.83-.92A.92.92,0,0,1,7.24,5ZM9.63,15.2H5.5V10.39H9.63Zm0-5.61H4.75V8H9.63Zm2-4.55a.78.78,0,0,1,1.14,0,.92.92,0,0,1,0,1.23,3.59,3.59,0,0,1-1.83.92.23.23,0,0,1-.14,0C10.62,7,11.12,5.58,11.63,5ZM14.5,15.2H10.38V10.39H14.5Zm.75-5.61H10.38V8h4.88Z"/></g></g></svg>