<svg xmlns="http://www.w3.org/2000/svg" viewBox="0 0 20 20">
  <g id="Слой_2" data-name="Слой 2">
    <g id="Слой_66" data-name="Слой 66">
      <path
        d="M17,1a2,2,0,0,1,2,2V17a2,2,0,0,1-2,2H3a2,2,0,0,1-2-2V3A2,2,0,0,1,3,1H17m0-1H3A3,3,0,0,0,0,3V17a3,3,0,0,0,3,3H17a3,3,0,0,0,3-3V3a3,3,0,0,0-3-3Z"/>
      <path
        d="M17,8.29a.75.75,0,0,0-.64-.53l-4-.38-1.6-3.9a.73.73,0,0,0-1.37,0l-1.6,3.9-4,.38A.75.75,0,0,0,3,8.29a.8.8,0,0,0,.22.83l3.06,2.8-.9,4.14a.79.79,0,0,0,.29.8.72.72,0,0,0,.82,0L10,14.72l3.48,2.17a.72.72,0,0,0,.82,0,.79.79,0,0,0,.29-.8l-.9-4.14,3.06-2.8A.8.8,0,0,0,17,8.29Z"/>
    </g>
  </g>
</svg>
