<svg xmlns="http://www.w3.org/2000/svg" viewBox="0 0 20 20">
  <g id="Слой_2" data-name="Слой 2">
    <g id="Слой_65" data-name="Слой 65">
      <path
        d="M17,1a2,2,0,0,1,2,2V17a2,2,0,0,1-2,2H3a2,2,0,0,1-2-2V3A2,2,0,0,1,3,1H17m0-1H3A3,3,0,0,0,0,3V17a3,3,0,0,0,3,3H17a3,3,0,0,0,3-3V3a3,3,0,0,0-3-3Z"/>
      <path
        d="M6.13,17a.72.72,0,0,1-.44-.15.79.79,0,0,1-.29-.8l.9-4.14L3.25,9.12A.8.8,0,0,1,3,8.29a.75.75,0,0,1,.64-.53l4-.38,1.6-3.9a.73.73,0,0,1,1.37,0l1.6,3.9,4,.38a.75.75,0,0,1,.64.53.8.8,0,0,1-.22.82l-3.05,2.79.9,4.14a.79.79,0,0,1-.29.8.72.72,0,0,1-.82,0L10,14.72,6.52,16.89A.72.72,0,0,1,6.13,17ZM10,13.78a.72.72,0,0,1,.38.11l3.29,2.05L12.82,12a.8.8,0,0,1,.24-.76l2.88-2.64-3.82-.36a.75.75,0,0,1-.62-.47L10,4.12,8.49,7.81a.74.74,0,0,1-.62.47l-3.82.36,2.88,2.64a.8.8,0,0,1,.24.76l-.85,3.91,3.29-2.05A.72.72,0,0,1,10,13.78ZM7.69,7.45h0Zm4.62,0h0Z"/>
    </g>
  </g>
</svg>
