<svg xmlns="http://www.w3.org/2000/svg" viewBox="0 0 14 12">
  <g id="Слой_2" data-name="Слой 2">
    <g id="Слой_61" data-name="Слой 61">
      <rect x="7" y="2" width="7" height="1" rx="0.5" ry="0.5"/>
      <rect x="7" y="9" width="7" height="1" rx="0.5" ry="0.5"/>
      <path d="M2.5.75A1.75,1.75,0,1,1,.75,2.5,1.75,1.75,0,0,1,2.5.75M2.5,0A2.5,2.5,0,1,0,5,2.5,2.5,2.5,0,0,0,2.5,0Z"/>
      <path
        d="M2.5,7.75A1.75,1.75,0,1,1,.75,9.5,1.75,1.75,0,0,1,2.5,7.75M2.5,7A2.5,2.5,0,1,0,5,9.5,2.5,2.5,0,0,0,2.5,7Z"/>
    </g>
  </g>
</svg>
