<svg xmlns="http://www.w3.org/2000/svg" viewBox="0 0 20 20">
  <g id="Слой_2" data-name="Слой 2">
    <g id="Слой_73" data-name="Слой 73">
      <path
        d="M17,1a2,2,0,0,1,2,2V17a2,2,0,0,1-2,2H3a2,2,0,0,1-2-2V3A2,2,0,0,1,3,1H17m0-1H3A3,3,0,0,0,0,3V17a3,3,0,0,0,3,3H17a3,3,0,0,0,3-3V3a3,3,0,0,0-3-3Z"/>
      <path
        d="M13,4a1,1,0,0,1,1,1V7a1,1,0,0,1-1,1H7A1,1,0,0,1,6,7V5A1,1,0,0,1,7,4h6m0-1H7A2,2,0,0,0,5,5V7A2,2,0,0,0,7,9h6a2,2,0,0,0,2-2V5a2,2,0,0,0-2-2Z"/>
      <path
        d="M13,12a1,1,0,0,1,1,1v2a1,1,0,0,1-1,1H7a1,1,0,0,1-1-1V13a1,1,0,0,1,1-1h6m0-1H7a2,2,0,0,0-2,2v2a2,2,0,0,0,2,2h6a2,2,0,0,0,2-2V13a2,2,0,0,0-2-2Z"/>
    </g>
  </g>
</svg>
