<svg xmlns="http://www.w3.org/2000/svg" viewBox="0 0 469.33 399">
  <g id="Слой_2" data-name="Слой 2">
    <g id="Слой_74" data-name="Слой 74">
      <path
        d="M375,0H52A52.15,52.15,0,0,0,0,52V290a52.15,52.15,0,0,0,52,52H85V321H52a31,31,0,0,1-31-31V52A31,31,0,0,1,52,21H375a31,31,0,0,1,31,31v77h21V52A52.15,52.15,0,0,0,375,0Z"/>
      <polygon points="173 341 85 399 85 321 106 321 106 363 173 320 173 341"/>
      <rect x="278" y="259" width="131" height="21" rx="10.5" ry="10.5"
            transform="translate(-89.96 321.83) rotate(-45)"/>
      <rect x="278" y="259" width="131" height="21" rx="10.5" ry="10.5"
            transform="translate(291.17 -163.96) rotate(45)"/>
      <rect x="173.08" y="320" width="25.92" height="21"/>
      <path
        d="M344,168.16A104.33,104.33,0,1,1,239.67,272.49,104.45,104.45,0,0,1,344,168.16m0-21A125.33,125.33,0,1,0,469.33,272.49,125.33,125.33,0,0,0,344,147.16Z"/>
    </g>
  </g>
</svg>
