<svg id="Layer_1" enable-background="new 0 0 510.554 510.554" height="512" viewBox="0 0 510.554 510.554" width="512"
     xmlns="http://www.w3.org/2000/svg">
  <g>
    <path
      d="m266.452 94.141c17.578-7.45 29.939-24.879 29.939-45.141 0-27.018-21.981-49-49-49s-49 21.982-49 49c0 20.401 12.535 37.923 30.306 45.286l-181.845 378.841 15.12 5.859c3.325 1.289 82.743 31.564 195.353 31.568h.02c66.18 0 130.099-10.56 189.975-31.387l16.383-5.698zm61.09 182.507 58.355 112.221-208.213-118.979 29.712-61.898zm-107.131-95.772 27.519-57.331 54.05 103.942zm26.981-150.876c10.477 0 19 8.523 19 19s-8.523 19-19 19-19-8.523-19-19 8.523-19 19-19zm-159.116 426.156 35.173-73.276 169.045 96.597c-71.438 4.324-144.565-5.096-204.218-23.321zm255.206 17.904-207.018-118.295 28.205-58.76 246.791 141.024 9.484 18.24c-25.15 7.813-51.021 13.739-77.462 17.791z"/>
  </g>
</svg>
